<svg width="80" height="80" viewBox="0 0 80 80" fill="none" xmlns="http://www.w3.org/2000/svg">
<path d="M40 55.8333C39.3396 55.8247 38.7088 55.5585 38.2418 55.0915C37.7748 54.6245 37.5086 53.9937 37.5 53.3333V36.6666C37.5 36.0036 37.7634 35.3677 38.2322 34.8989C38.7011 34.43 39.337 34.1666 40 34.1666C40.663 34.1666 41.2989 34.43 41.7678 34.8989C42.2366 35.3677 42.5 36.0036 42.5 36.6666V53.3333C42.4914 53.9937 42.2252 54.6245 41.7582 55.0915C41.2912 55.5585 40.6604 55.8247 40 55.8333Z" fill="#D9D9D9"/>
<path d="M40 30.8333C39.3396 30.8247 38.7088 30.5585 38.2418 30.0915C37.7748 29.6245 37.5086 28.9936 37.5 28.3333V26.6666C37.5 26.0036 37.7634 25.3677 38.2322 24.8989C38.7011 24.43 39.337 24.1666 40 24.1666C40.663 24.1666 41.2989 24.43 41.7678 24.8989C42.2366 25.3677 42.5 26.0036 42.5 26.6666V28.3333C42.4914 28.9936 42.2252 29.6245 41.7582 30.0915C41.2912 30.5585 40.6604 30.8247 40 30.8333Z" fill="#D9D9D9"/>
<path d="M40 70C34.0666 70 28.2664 68.2405 23.3329 64.9441C18.3994 61.6477 14.5543 56.9623 12.2836 51.4805C10.013 45.9987 9.4189 39.9667 10.5765 34.1473C11.734 28.3279 14.5912 22.9824 18.7868 18.7868C22.9824 14.5912 28.3279 11.734 34.1473 10.5765C39.9667 9.4189 45.9987 10.013 51.4805 12.2836C56.9623 14.5543 61.6477 18.3994 64.9441 23.3329C68.2405 28.2664 70 34.0666 70 40C70 47.9565 66.8393 55.5871 61.2132 61.2132C55.5871 66.8393 47.9565 70 40 70ZM40 15C35.0555 15 30.222 16.4662 26.1108 19.2133C21.9995 21.9603 18.7952 25.8648 16.903 30.4329C15.0108 35.0011 14.5158 40.0277 15.4804 44.8773C16.445 49.7268 18.826 54.1814 22.3223 57.6777C25.8187 61.174 30.2732 63.555 35.1228 64.5196C39.9723 65.4843 44.9989 64.9892 49.5671 63.097C54.1353 61.2048 58.0397 58.0005 60.7868 53.8893C63.5338 49.778 65 44.9445 65 40C65 33.3696 62.3661 27.0108 57.6777 22.3223C52.9893 17.6339 46.6304 15 40 15Z" fill="#D9D9D9"/>
</svg>
