<svg width="28" height="28" viewBox="0 0 28 28" fill="none" xmlns="http://www.w3.org/2000/svg">
<path fill-rule="evenodd" clip-rule="evenodd" d="M4.90005 14C4.90005 8.97426 8.97426 4.90005 14 4.90005C19.0258 4.90005 23.1 8.97426 23.1 14C23.1 19.0258 19.0258 23.1 14 23.1C8.97426 23.1 4.90005 19.0258 4.90005 14ZM14 2.80005C7.81446 2.80005 2.80005 7.81446 2.80005 14C2.80005 20.1856 7.81446 25.2 14 25.2C20.1856 25.2 25.2 20.1856 25.2 14C25.2 7.81446 20.1856 2.80005 14 2.80005ZM15.05 7.91021C15.05 7.33031 14.5799 6.86021 14 6.86021C13.4201 6.86021 12.95 7.33031 12.95 7.91021V14.0002C12.95 14.3979 13.1748 14.7615 13.5305 14.9394L17.5905 16.9694C18.1092 17.2287 18.7399 17.0185 18.9992 16.4998C19.2585 15.9811 19.0483 15.3504 18.5296 15.0911L15.05 13.3513V7.91021Z" fill="#D9D9D9"/>
</svg>
