<svg width="24" height="24" viewBox="0 0 24 24" fill="none" xmlns="http://www.w3.org/2000/svg">
<path d="M20 12.05C19.9813 10.5254 19.5273 9.03803 18.6915 7.76289C17.8557 6.48775 16.673 5.47798 15.2826 4.85251C13.8921 4.22704 12.3519 4.01191 10.8433 4.23247C9.33473 4.45302 7.92057 5.10007 6.7674 6.09741C5.61422 7.09476 4.77005 8.40085 4.3343 9.86189C3.89856 11.3229 3.88938 12.8781 4.30786 14.3441C4.72634 15.8102 5.55504 17.1262 6.69637 18.1371C7.83769 19.1479 9.24412 19.8116 10.75 20.05V14.38H8.75001V12.05H10.75V10.28C10.7037 9.8684 10.7483 9.45169 10.8807 9.05925C11.0131 8.66681 11.23 8.30821 11.5161 8.00876C11.8022 7.7093 12.1505 7.47629 12.5365 7.32617C12.9225 7.17606 13.3368 7.11249 13.75 7.13996C14.3498 7.14818 14.9482 7.20166 15.54 7.29996V9.29996H14.54C14.3676 9.27822 14.1924 9.2955 14.0276 9.35053C13.8627 9.40556 13.7123 9.49693 13.5875 9.61789C13.4627 9.73885 13.3667 9.88631 13.3066 10.0494C13.2464 10.2124 13.2237 10.3869 13.24 10.56V12.07H15.46L15.1 14.4H13.25V20C15.1399 19.701 16.8601 18.7346 18.0985 17.276C19.3369 15.8175 20.0115 13.9633 20 12.05Z" fill="#D9D9D9"/>
</svg>
