<svg width="12" height="12" viewBox="0 0 12 12" fill="none" xmlns="http://www.w3.org/2000/svg">
<path d="M6 8.375C5.90095 8.37371 5.80631 8.33378 5.73627 8.26373C5.66622 8.19369 5.62629 8.09905 5.625 8V5.5C5.625 5.40054 5.66451 5.30516 5.73484 5.23484C5.80516 5.16451 5.90054 5.125 6 5.125C6.09946 5.125 6.19484 5.16451 6.26516 5.23484C6.33549 5.30516 6.375 5.40054 6.375 5.5V8C6.37371 8.09905 6.33378 8.19369 6.26373 8.26373C6.19369 8.33378 6.09905 8.37371 6 8.375Z" fill="#D9D9D9"/>
<path d="M6 4.625C5.90095 4.62371 5.80631 4.58378 5.73627 4.51373C5.66622 4.44369 5.62629 4.34905 5.625 4.25V4C5.625 3.90054 5.66451 3.80516 5.73484 3.73483C5.80516 3.66451 5.90054 3.625 6 3.625C6.09946 3.625 6.19484 3.66451 6.26516 3.73483C6.33549 3.80516 6.375 3.90054 6.375 4V4.25C6.37371 4.34905 6.33378 4.44369 6.26373 4.51373C6.19369 4.58378 6.09905 4.62371 6 4.625Z" fill="#D9D9D9"/>
<path d="M6 10.5C5.10999 10.5 4.23996 10.2361 3.49994 9.74162C2.75991 9.24715 2.18314 8.54434 1.84254 7.72208C1.50195 6.89981 1.41283 5.99501 1.58647 5.1221C1.7601 4.24918 2.18869 3.44736 2.81802 2.81802C3.44736 2.18869 4.24918 1.7601 5.1221 1.58647C5.99501 1.41283 6.89981 1.50195 7.72208 1.84254C8.54434 2.18314 9.24715 2.75991 9.74162 3.49994C10.2361 4.23996 10.5 5.10999 10.5 6C10.5 7.19348 10.0259 8.33807 9.18198 9.18198C8.33807 10.0259 7.19348 10.5 6 10.5ZM6 2.25C5.25832 2.25 4.5333 2.46994 3.91661 2.88199C3.29993 3.29405 2.81928 3.87972 2.53545 4.56494C2.25163 5.25016 2.17736 6.00416 2.32206 6.73159C2.46675 7.45902 2.8239 8.12721 3.34835 8.65165C3.8728 9.1761 4.54098 9.53325 5.26841 9.67795C5.99584 9.82264 6.74984 9.74838 7.43506 9.46455C8.12029 9.18072 8.70596 8.70007 9.11801 8.08339C9.53007 7.46671 9.75 6.74168 9.75 6C9.75 5.00544 9.35491 4.05161 8.65165 3.34835C7.94839 2.64509 6.99456 2.25 6 2.25Z" fill="#D9D9D9"/>
</svg>
