<svg width="28" height="28" viewBox="0 0 28 28" fill="none" xmlns="http://www.w3.org/2000/svg">
<path fill-rule="evenodd" clip-rule="evenodd" d="M11.9694 4.15002C11.233 4.15002 10.5262 4.44143 10.0047 4.96103C9.48307 5.48073 9.18951 6.18618 9.18951 6.92235V8.19439H5.87983C4.34719 8.19439 3.09998 9.43297 3.09998 10.9667V21.0783C3.09998 22.6121 4.34719 23.8507 5.87983 23.8507H9.91866C9.92559 23.8508 9.93254 23.8509 9.93951 23.8509C9.94649 23.8509 9.95344 23.8508 9.96036 23.8507H18.0381C18.045 23.8508 18.052 23.8509 18.0589 23.8509C18.0659 23.8509 18.0729 23.8508 18.0798 23.8507H22.1187C23.6513 23.8507 24.8985 22.6121 24.8985 21.0783V10.9667C24.8985 9.43297 23.6513 8.19439 22.1187 8.19439H18.8089V6.92235C18.8089 6.18618 18.5154 5.48073 17.9937 4.96103C17.4722 4.44143 16.7654 4.15002 16.0291 4.15002H11.9694ZM17.3089 8.19439V6.92235C17.3089 6.58581 17.1748 6.26249 16.9351 6.02366C16.6952 5.78475 16.3694 5.65002 16.0291 5.65002H11.9694C11.629 5.65002 11.3032 5.78475 11.0634 6.02366C10.8237 6.26249 10.6895 6.58581 10.6895 6.92235V8.19439H17.3089ZM10.6895 9.69439H17.3089V22.3507H10.6895V9.69439ZM9.18951 9.69439H5.87983C5.17036 9.69439 4.59998 10.2667 4.59998 10.9667V21.0783C4.59998 21.7784 5.17036 22.3507 5.87983 22.3507H9.18951V9.69439ZM18.8089 22.3507V9.69439H22.1187C22.8281 9.69439 23.3985 10.2667 23.3985 10.9667V21.0783C23.3985 21.7784 22.8281 22.3507 22.1187 22.3507H18.8089Z" fill="#D9D9D9"/>
</svg>
