<svg width="20" height="20" viewBox="0 0 20 20" fill="none" xmlns="http://www.w3.org/2000/svg">
<path fill-rule="evenodd" clip-rule="evenodd" d="M6.01772 5.01772C6.9895 4.04594 8.30751 3.5 9.68182 3.5C11.0561 3.5 12.3741 4.04594 13.3459 5.01772C14.3177 5.9895 14.8636 7.30751 14.8636 8.68182C14.8636 10.6872 13.5564 12.6464 12.1033 14.1802C11.392 14.9309 10.6783 15.5459 10.1415 15.9733C9.96674 16.1124 9.81141 16.2312 9.68182 16.3278C9.55222 16.2312 9.39689 16.1124 9.22217 15.9733C8.68536 15.5459 7.9716 14.9309 7.26037 14.1802C5.80726 12.6464 4.5 10.6872 4.5 8.68182C4.5 7.30751 5.04594 5.9895 6.01772 5.01772ZM9.2654 17.8738C9.26561 17.8739 9.26579 17.874 9.68182 17.25L10.0978 17.874C9.84592 18.042 9.51732 18.0417 9.2654 17.8738ZM9.2654 17.8738L9.68182 17.25C10.0978 17.874 10.0986 17.8736 10.0988 17.8734L10.1002 17.8724L10.1048 17.8694L10.1202 17.8589C10.1333 17.8501 10.1518 17.8374 10.1755 17.821C10.2227 17.7883 10.2905 17.7407 10.3758 17.6791C10.5464 17.5559 10.7876 17.3763 11.0759 17.1467C11.6513 16.6885 12.4205 16.0264 13.1922 15.2118C14.705 13.615 16.3636 11.2901 16.3636 8.68182C16.3636 6.90969 15.6597 5.21014 14.4066 3.95706C13.1535 2.70398 11.4539 2 9.68182 2C7.90969 2 6.21014 2.70398 4.95706 3.95706C3.70398 5.21014 3 6.90969 3 8.68182C3 11.2901 4.65865 13.615 6.17144 15.2118C6.94318 16.0264 7.71236 16.6885 8.28778 17.1467C8.57608 17.3763 8.81726 17.5559 8.98782 17.6791C9.07314 17.7407 9.1409 17.7883 9.18817 17.821C9.21182 17.8374 9.23035 17.8501 9.2434 17.8589L9.25884 17.8694L9.26339 17.8724L9.2654 17.8738ZM8.45453 8.68183C8.45453 8.00403 9.004 7.45456 9.6818 7.45456C10.3596 7.45456 10.9091 8.00403 10.9091 8.68183C10.9091 9.35964 10.3596 9.9091 9.6818 9.9091C9.004 9.9091 8.45453 9.35964 8.45453 8.68183ZM9.6818 5.95456C8.17557 5.95456 6.95453 7.1756 6.95453 8.68183C6.95453 10.1881 8.17557 11.4091 9.6818 11.4091C11.188 11.4091 12.4091 10.1881 12.4091 8.68183C12.4091 7.1756 11.188 5.95456 9.6818 5.95456Z" fill="#D9D9D9"/>
</svg>
