<svg width="28" height="28" viewBox="0 0 28 28" fill="none" xmlns="http://www.w3.org/2000/svg">
<path fill-rule="evenodd" clip-rule="evenodd" d="M8.42476 7.02486C9.78525 5.66436 11.6305 4.90005 13.5545 4.90005C15.4785 4.90005 17.3237 5.66436 18.6842 7.02486C20.0447 8.38535 20.809 10.2306 20.809 12.1546C20.809 14.9621 18.9789 17.705 16.9445 19.8524C15.9488 20.9034 14.9495 21.7642 14.198 22.3627C13.9534 22.5575 13.7359 22.7237 13.5545 22.859C13.3731 22.7237 13.1556 22.5575 12.911 22.3627C12.1595 21.7642 11.1602 20.9034 10.1645 19.8524C8.13011 17.705 6.29995 14.9621 6.29995 12.1546C6.29995 10.2306 7.06427 8.38535 8.42476 7.02486ZM12.9715 25.0233C12.9718 25.0235 12.9721 25.0237 13.5545 24.1501L14.1369 25.0237C13.7842 25.2588 13.3242 25.2585 12.9715 25.0233ZM12.9715 25.0233L13.5545 24.1501C14.1369 25.0237 14.1379 25.023 14.1382 25.0228L14.1403 25.0215L14.1467 25.0172L14.1683 25.0026C14.1866 24.9901 14.2125 24.9724 14.2456 24.9495C14.3118 24.9036 14.4067 24.837 14.5261 24.7508C14.7649 24.5783 15.1025 24.3269 15.5062 24.0055C16.3117 23.364 17.3886 22.4371 18.469 21.2966C20.5869 19.061 22.909 15.8062 22.909 12.1546C22.909 9.67362 21.9235 7.29425 20.1692 5.53993C18.4148 3.78561 16.0355 2.80005 13.5545 2.80005C11.0735 2.80005 8.69415 3.78561 6.93983 5.53993C5.18552 7.29425 4.19995 9.67362 4.19995 12.1546C4.19995 15.8062 6.52206 19.061 8.63997 21.2966C9.7204 22.4371 10.7973 23.364 11.6028 24.0055C12.0065 24.3269 12.3441 24.5783 12.5829 24.7508C12.7023 24.837 12.7972 24.9036 12.8634 24.9495C12.8965 24.9724 12.9224 24.9901 12.9407 25.0026L12.9623 25.0172L12.9687 25.0215L12.9715 25.0233ZM11.8363 12.1546C11.8363 11.2057 12.6055 10.4364 13.5545 10.4364C14.5034 10.4364 15.2727 11.2057 15.2727 12.1546C15.2727 13.1035 14.5034 13.8728 13.5545 13.8728C12.6055 13.8728 11.8363 13.1035 11.8363 12.1546ZM13.5545 8.33643C11.4458 8.33643 9.73629 10.0459 9.73629 12.1546C9.73629 14.2633 11.4458 15.9728 13.5545 15.9728C15.6632 15.9728 17.3727 14.2633 17.3727 12.1546C17.3727 10.0459 15.6632 8.33643 13.5545 8.33643Z" fill="#D9D9D9"/>
</svg>
