<svg id="btn_add_favourites" xmlns="http://www.w3.org/2000/svg" width="32" height="32" viewBox="0 0 32 32">
  <circle id="BG" cx="16" cy="16" r="16" fill="#13171b" opacity="0.4"/>
  <g id="ic_add_favourites" transform="translate(1.5 3.5)">
    <path id="Box" d="M0,0H24V24H0Z" transform="translate(2.5 0.5)" fill="none"/>
    <path id="Icon_ionic-md-heart-empty" data-name="Icon ionic-md-heart-empty" d="M17.3,4.5a5.681,5.681,0,0,0-4.322,2.027A5.681,5.681,0,0,0,8.657,4.5,5.222,5.222,0,0,0,3.375,9.814c0,3.671,3.264,6.617,8.209,11.16l1.394,1.256,1.394-1.256c4.945-4.543,8.209-7.489,8.209-11.16A5.222,5.222,0,0,0,17.3,4.5ZM13.57,19.7l-.194.18-.4.36-.4-.36-.194-.18a58.689,58.689,0,0,1-5.665-5.633A6.775,6.775,0,0,1,4.857,9.814,3.84,3.84,0,0,1,5.951,7.076a3.758,3.758,0,0,1,2.706-1.1,4.235,4.235,0,0,1,3.191,1.5l1.131,1.344L14.11,7.478a4.219,4.219,0,0,1,3.191-1.5,3.776,3.776,0,0,1,2.71,1.1,3.848,3.848,0,0,1,1.094,2.738,6.81,6.81,0,0,1-1.865,4.257A58.807,58.807,0,0,1,13.57,19.7Z" transform="translate(1.521 0.02)" fill="#fff" stroke="#fff" stroke-width="0.2"/>
  </g>
</svg>
