<svg width="12" height="24" viewBox="0 0 12 24" fill="none" xmlns="http://www.w3.org/2000/svg">
<path d="M9.31859 10.9754C8.43959 10.4897 7.50507 10.1196 6.5798 9.73557C6.04314 9.51351 5.52962 9.25443 5.07624 8.89358C4.18336 8.18112 4.35453 7.02453 5.40008 6.56653C5.69617 6.43699 6.00613 6.39535 6.32073 6.37685C7.53283 6.31208 8.68479 6.53414 9.78123 7.06154C10.3271 7.32525 10.5076 7.24197 10.6926 6.67293C10.8869 6.07151 11.0488 5.46083 11.2293 4.85478C11.3496 4.44766 11.2015 4.17933 10.8175 4.00816C10.1143 3.69819 9.39262 3.47613 8.6339 3.35585C7.64386 3.20318 7.64386 3.19855 7.63923 2.20389C7.63461 0.802105 7.63461 0.802105 6.2282 0.802105C6.02464 0.802105 5.82108 0.797479 5.61752 0.802105C4.96058 0.82061 4.84955 0.936269 4.83104 1.59784C4.82179 1.89392 4.83104 2.19001 4.82642 2.49072C4.82179 3.36972 4.81716 3.35585 3.97517 3.66118C1.93958 4.4014 0.681214 5.7893 0.54705 8.00994C0.426765 9.97614 1.45381 11.3039 3.06841 12.2708C4.06307 12.8676 5.16414 13.2192 6.21895 13.6865C6.63069 13.8669 7.02393 14.0751 7.36628 14.3619C8.37945 15.1993 8.19439 16.5918 6.99154 17.1192C6.34848 17.4014 5.66841 17.4708 4.96983 17.3829C3.8919 17.2487 2.86022 16.9665 1.88869 16.4623C1.31965 16.1662 1.1531 16.2448 0.958794 16.8601C0.792246 17.3922 0.644204 17.9288 0.496161 18.4655C0.297228 19.1872 0.371249 19.3584 1.06057 19.6961C1.93958 20.1217 2.87873 20.3391 3.83638 20.4918C4.58585 20.6121 4.60898 20.6445 4.61823 21.4217C4.62286 21.7733 4.62286 22.1295 4.62748 22.4811C4.63211 22.9253 4.84492 23.1843 5.30293 23.1936C5.82108 23.2029 6.34386 23.2029 6.86201 23.189C7.28763 23.1797 7.50507 22.9484 7.50507 22.5182C7.50507 22.037 7.5282 21.5512 7.50969 21.0701C7.48656 20.5797 7.69938 20.3299 8.17126 20.2004C9.25845 19.9043 10.1837 19.3214 10.8962 18.4516C12.8763 16.0459 12.1222 12.5253 9.31859 10.9754Z" fill="#D9D9D9"/>
</svg>
